<svg width="24" height="24" viewBox="0 0 24 24" fill="none" xmlns="http://www.w3.org/2000/svg">
<path d="M4.25475 8.56653C3.90545 8.56653 3.60908 8.68834 3.36546 8.93196C3.12185 9.17557 3 9.46791 3 9.80911V15.0478C3 15.3976 3.12181 15.6937 3.36546 15.9373C3.60908 16.1809 3.90545 16.3028 4.25475 16.3028C4.60379 16.3028 4.89836 16.181 5.1382 15.9373C5.37757 15.6937 5.49758 15.3976 5.49758 15.0478V9.80911C5.49758 9.46787 5.37577 9.17557 5.13212 8.93196C4.88846 8.68834 4.59595 8.56653 4.25475 8.56653Z" fill="#0C0C0C"/>
<path d="M14.3426 3.86386L15.2076 2.26813C15.2644 2.16249 15.2442 2.08148 15.1468 2.02451C15.0412 1.9754 14.96 2.00029 14.9032 2.09742L14.0261 3.70591C13.2543 3.36467 12.438 3.19374 11.5772 3.19374C10.7162 3.19374 9.89985 3.36471 9.12834 3.70591L8.25119 2.09742C8.19419 2.00029 8.113 1.97562 8.00757 2.02451C7.90999 2.08174 7.8898 2.16249 7.9468 2.26813L8.81185 3.86386C7.9347 4.31118 7.2361 4.93415 6.71631 5.73414C6.19653 6.53457 5.93652 7.40927 5.93652 8.35977H17.2056C17.2056 7.40948 16.9456 6.53475 16.4259 5.73414C15.906 4.93415 15.2115 4.31118 14.3426 3.86386ZM9.34146 6.18487C9.24791 6.27864 9.13619 6.3253 9.00631 6.3253C8.87618 6.3253 8.76673 6.27864 8.67743 6.18487C8.58814 6.09154 8.54349 5.98025 8.54349 5.84994C8.54349 5.72007 8.58814 5.60856 8.67743 5.51501C8.76673 5.42168 8.87644 5.37502 9.00631 5.37502C9.13619 5.37502 9.24791 5.42168 9.34146 5.51501C9.43479 5.60878 9.48167 5.72007 9.48167 5.84994C9.48142 5.98003 9.43457 6.09154 9.34146 6.18487ZM14.4765 6.18487C14.387 6.27864 14.2773 6.3253 14.1477 6.3253C14.0175 6.3253 13.9058 6.27864 13.8124 6.18487C13.7189 6.09154 13.6723 5.98025 13.6723 5.84994C13.6723 5.72007 13.7189 5.60856 13.8124 5.51501C13.9058 5.42168 14.0175 5.37502 14.1477 5.37502C14.2775 5.37502 14.387 5.42168 14.4765 5.51501C14.5659 5.60878 14.6105 5.72007 14.6105 5.84994C14.6105 5.98003 14.5658 6.09154 14.4765 6.18487Z" fill="#0C0C0C"/>
<path d="M5.98486 16.9119C5.98486 17.2859 6.11474 17.6024 6.37452 17.8622C6.63452 18.122 6.95109 18.2519 7.3248 18.2519H8.2264L8.23875 21.0177C8.23875 21.367 8.36056 21.6636 8.60418 21.9072C8.8478 22.1509 9.14036 22.2727 9.48133 22.2727C9.83041 22.2727 10.127 22.1509 10.3706 21.9072C10.6143 21.6636 10.7361 21.367 10.7361 21.0177V18.2521H12.4173V21.0177C12.4173 21.367 12.5391 21.6636 12.7827 21.9072C13.0264 22.1509 13.3227 22.2727 13.672 22.2727C14.0211 22.2727 14.3176 22.1509 14.5613 21.9072C14.8049 21.6636 14.9267 21.367 14.9267 21.0177V18.2521H15.8405C16.2059 18.2521 16.5184 18.1222 16.7787 17.8624C17.0384 17.6026 17.1684 17.2861 17.1684 16.9121V8.79785H5.98486V16.9119Z" fill="#0C0C0C"/>
<path d="M18.8989 8.56653C18.5576 8.56653 18.2653 8.68654 18.0217 8.92591C17.7781 9.16571 17.6562 9.46028 17.6562 9.80911V15.0478C17.6562 15.3976 17.778 15.6937 18.0217 15.9373C18.2653 16.181 18.5579 16.3028 18.8989 16.3028C19.2479 16.3028 19.5445 16.181 19.7881 15.9373C20.0318 15.6937 20.1536 15.3976 20.1536 15.0478V9.80911C20.1536 9.46025 20.0318 9.16571 19.7881 8.92591C19.5445 8.68654 19.2479 8.56653 18.8989 8.56653Z" fill="#0C0C0C"/>
</svg>
