<svg width="21" height="20" viewBox="0 0 21 20" fill="none" xmlns="http://www.w3.org/2000/svg">
<path d="M15.5335 11.2923C15.1835 11.634 14.9835 12.1256 15.0335 12.6506C15.1085 13.5506 15.9335 14.209 16.8335 14.209H18.4168V15.2006C18.4168 16.9256 17.0085 18.334 15.2835 18.334H5.71683C3.99183 18.334 2.5835 16.9256 2.5835 15.2006V9.59233C2.5835 7.86733 3.99183 6.45898 5.71683 6.45898H15.2835C17.0085 6.45898 18.4168 7.86733 18.4168 9.59233V10.7923H16.7335C16.2668 10.7923 15.8418 10.9756 15.5335 11.2923Z" stroke="#888888" stroke-width="1.5" stroke-linecap="round" stroke-linejoin="round"/>
<path d="M2.5835 10.3421V6.53379C2.5835 5.54212 3.19183 4.65875 4.11683 4.30875L10.7335 1.80875C11.7668 1.41708 12.8752 2.18377 12.8752 3.29211V6.45876" stroke="#888888" stroke-width="1.5" stroke-linecap="round" stroke-linejoin="round"/>
<path d="M19.2992 11.642V13.3587C19.2992 13.817 18.9325 14.192 18.4658 14.2086H16.8325C15.9325 14.2086 15.1075 13.5503 15.0325 12.6503C14.9825 12.1253 15.1825 11.6336 15.5325 11.292C15.8408 10.9753 16.2658 10.792 16.7325 10.792H18.4658C18.9325 10.8087 19.2992 11.1836 19.2992 11.642Z" stroke="#888888" stroke-width="1.5" stroke-linecap="round" stroke-linejoin="round"/>
<path d="M6.3335 10H12.1668" stroke="#888888" stroke-width="1.5" stroke-linecap="round" stroke-linejoin="round"/>
</svg>
