<svg width="21" height="20" viewBox="0 0 21 20" fill="none" xmlns="http://www.w3.org/2000/svg">
<g clip-path="url(#clip0_2671_19439)">
<path d="M10.5002 17.5003H5.50016C5.05814 17.5003 4.63421 17.3247 4.32165 17.0122C4.00909 16.6996 3.8335 16.2757 3.8335 15.8337V5.83366C3.8335 5.39163 4.00909 4.96771 4.32165 4.65515C4.63421 4.34259 5.05814 4.16699 5.50016 4.16699H15.5002C15.9422 4.16699 16.3661 4.34259 16.6787 4.65515C16.9912 4.96771 17.1668 5.39163 17.1668 5.83366V10.8337" stroke="white" stroke-width="1.5" stroke-linecap="round" stroke-linejoin="round"/>
<path d="M13.8335 2.5V5.83333" stroke="white" stroke-width="1.5" stroke-linecap="round" stroke-linejoin="round"/>
<path d="M7.1665 2.5V5.83333" stroke="white" stroke-width="1.5" stroke-linecap="round" stroke-linejoin="round"/>
<path d="M3.8335 9.16699H17.1668" stroke="white" stroke-width="1.5" stroke-linecap="round" stroke-linejoin="round"/>
<path d="M13.8335 18.3337L18.0002 14.167" stroke="white" stroke-width="1.5" stroke-linecap="round" stroke-linejoin="round"/>
<path d="M18 17.917V14.167H14.25" stroke="white" stroke-width="1.5" stroke-linecap="round" stroke-linejoin="round"/>
</g>
<defs>
<clipPath id="clip0_2671_19439">
<rect width="20" height="20" fill="white" transform="translate(0.5)"/>
</clipPath>
</defs>
</svg>
