<svg width="24" height="24" viewBox="0 0 24 24" fill="none" xmlns="http://www.w3.org/2000/svg">
<path d="M17.587 11.636C17.5637 9.10926 19.706 7.88002 19.804 7.82279C18.5907 6.09573 16.7101 5.85976 16.0493 5.84094C14.4698 5.67866 12.9378 6.76366 12.1332 6.76366C11.3125 6.76366 10.0735 5.85662 8.73818 5.88328C7.01981 5.90915 5.41225 6.88047 4.53058 8.38881C2.71104 11.4643 4.06807 15.9838 5.81133 18.4697C6.68337 19.6872 7.70234 21.0466 9.03609 20.9988C10.3409 20.9462 10.8283 20.1866 12.403 20.1866C13.9632 20.1866 14.4209 20.9988 15.7811 20.9682C17.1815 20.9462 18.0632 19.7452 18.9047 18.5168C19.9124 17.1213 20.3171 15.747 20.3332 15.6765C20.3002 15.6655 17.6135 14.6644 17.587 11.636Z" fill="#0C0C0C"/>
<path d="M15.0175 4.2056C15.7193 3.34874 16.1994 2.18299 16.0661 1C15.0504 1.0439 13.7801 1.68596 13.0486 2.52402C12.4014 3.2625 11.8232 4.47293 11.9726 5.61124C13.1136 5.69434 14.2851 5.04914 15.0175 4.2056Z" fill="#0C0C0C"/>
</svg>
