<svg width="20" height="20" viewBox="0 0 20 20" fill="none" xmlns="http://www.w3.org/2000/svg">
<path d="M15.8333 7.49998V6.04165C15.8333 3.33331 14.3417 2.70831 12.5 2.70831C12.5 3.74165 11.6583 4.58331 10.625 4.58331H7.70833C7.19167 4.58331 6.72498 4.37498 6.38331 4.03331C6.04164 3.69164 5.83333 3.22498 5.83333 2.70831C3.99167 2.70831 2.5 3.33331 2.5 6.04165V14.1666C2.5 16.6666 3.99167 17.5 5.83333 17.5H9.16667" stroke="white" stroke-width="1.5" stroke-linecap="round" stroke-linejoin="round"/>
<path d="M12.5002 2.70831C12.5002 3.74165 11.6585 4.58331 10.6252 4.58331H7.7085C7.19183 4.58331 6.72514 4.37498 6.38347 4.03331C6.04181 3.69164 5.8335 3.22498 5.8335 2.70831C5.8335 1.67498 6.67516 0.833313 7.7085 0.833313H10.6252C11.1418 0.833313 11.6085 1.04165 11.9502 1.38332C12.2919 1.72498 12.5002 2.19165 12.5002 2.70831Z" stroke="white" stroke-width="1.5" stroke-linecap="round" stroke-linejoin="round"/>
<path d="M18 10.75V16.25C18 17.9 17.25 19 15.5 19H11.5C9.75 19 9 17.9 9 16.25V10.75C9 9.1 9.75 8 11.5 8H15.5C17.25 8 18 9.1 18 10.75Z" stroke="white" stroke-width="1.5" stroke-miterlimit="10" stroke-linecap="round" stroke-linejoin="round"/>
<path d="M12 13.5H14" stroke="white" stroke-width="1.5" stroke-miterlimit="10" stroke-linecap="round" stroke-linejoin="round"/>
<path d="M12 16H15" stroke="white" stroke-width="1.5" stroke-miterlimit="10" stroke-linecap="round" stroke-linejoin="round"/>
<path d="M12 11H15" stroke="white" stroke-width="1.5" stroke-miterlimit="10" stroke-linecap="round" stroke-linejoin="round"/>
</svg>
