<svg width="270" height="55" viewBox="0 0 270 55" fill="none" xmlns="http://www.w3.org/2000/svg">
<g clip-path="url(#clip0_3537_17444)">
<path d="M29.8195 30.4847L12.7752 1.21155H0.292969V51.9009H14.4226V31.5618L26.1446 51.9009H33.051L44.8996 30.8648L45.0263 51.9009H59.0926V1.21155H46.4837L29.8195 30.4847Z" fill="white"/>
<path d="M107.754 3.61923C103.509 1.3382 98.6935 0.197693 93.3711 0.197693C88.0487 0.197693 83.2333 1.3382 78.988 3.61923C74.7428 5.90025 71.3213 9.06833 68.9135 13.0601C66.5058 17.0519 65.2385 21.614 65.2385 26.6195C65.2385 31.6251 66.4424 36.1872 68.9135 40.1789C71.3213 44.1707 74.7428 47.3388 78.988 49.6198C83.2333 51.9009 88.0487 53.0414 93.3711 53.0414C98.6935 53.0414 103.509 51.9009 107.754 49.6198C111.999 47.3388 115.421 44.1707 117.829 40.1789C120.236 36.1872 121.504 31.6251 121.504 26.6195C121.504 21.614 120.3 17.0519 117.829 13.0601C115.421 9.00497 111.999 5.83689 107.754 3.61923ZM99.834 38.4048C97.9332 39.5453 95.7155 40.1156 93.3711 40.1156C90.9634 40.1156 88.8091 39.5453 86.8449 38.4048C84.944 37.2643 83.36 35.6803 82.2828 33.6527C81.1423 31.6251 80.5721 29.2174 80.5721 26.5562C80.5721 23.895 81.1423 21.4872 82.2828 19.4597C83.4233 17.4321 84.944 15.848 86.8449 14.7075C88.7457 13.567 90.9634 12.9968 93.3711 12.9968C95.7789 12.9968 97.9332 13.567 99.834 14.7075C101.735 15.848 103.319 17.4321 104.396 19.4597C105.537 21.4872 106.107 23.895 106.107 26.5562C106.107 29.2174 105.537 31.6251 104.396 33.6527C103.319 35.6803 101.798 37.3277 99.834 38.4048Z" fill="white"/>
<path d="M142.857 1.21155H127.65V51.9009H166.491V39.6088H142.857V1.21155Z" fill="white"/>
<path d="M177.643 1.21155H161.232L182.902 51.9009H197.475L198.172 50.3169L177.643 1.21155Z" fill="white"/>
<path d="M203.494 37.7711L219.208 1.21143H204.065L196.081 19.9031L203.494 37.7711Z" fill="#B4E2FF"/>
<path d="M247.214 1.21155H233.464L245.313 30.7381H234.351H219.588L210.274 51.9009H225.861L229.789 42.27H249.938L253.803 51.9009H269.707L247.214 1.21155Z" fill="white"/>
</g>
<defs>
<clipPath id="clip0_3537_17444">
<rect width="269.414" height="54.1406" fill="white" transform="translate(0.292969)"/>
</clipPath>
</defs>
</svg>
