<svg width="140" height="28" viewBox="0 0 140 28" fill="none" xmlns="http://www.w3.org/2000/svg">
<path d="M16.1226 15.512L7.39303 0.519165H1V26.4807H8.23678V16.0636L14.2404 26.4807H17.7776L23.8462 15.7067L23.9111 26.4807H31.1154V0.519165H24.6575L16.1226 15.512Z" fill="#1454B2"/>
<path d="M56.0384 1.7524C53.8641 0.584135 51.3978 0 48.6718 0C45.9459 0 43.4795 0.584135 41.3053 1.7524C39.131 2.92067 37.3786 4.54327 36.1454 6.58774C34.9122 8.63221 34.2632 10.9688 34.2632 13.5325C34.2632 16.0962 34.8798 18.4327 36.1454 20.4772C37.3786 22.5216 39.131 24.1442 41.3053 25.3125C43.4795 26.4808 45.9459 27.0649 48.6718 27.0649C51.3978 27.0649 53.8641 26.4808 56.0384 25.3125C58.2127 24.1442 59.9651 22.5216 61.1983 20.4772C62.4315 18.4327 63.0805 16.0962 63.0805 13.5325C63.0805 10.9688 62.4639 8.63221 61.1983 6.58774C59.9651 4.51082 58.2127 2.88822 56.0384 1.7524ZM51.9819 19.5685C51.0084 20.1526 49.8726 20.4447 48.6718 20.4447C47.4387 20.4447 46.3353 20.1526 45.3293 19.5685C44.3557 18.9844 43.5444 18.1731 42.9927 17.1346C42.4086 16.0962 42.1165 14.863 42.1165 13.5C42.1165 12.137 42.4086 10.9038 42.9927 9.86539C43.5769 8.82692 44.3557 8.01562 45.3293 7.43149C46.3028 6.84736 47.4387 6.55529 48.6718 6.55529C49.905 6.55529 51.0084 6.84736 51.9819 7.43149C52.9555 8.01562 53.7668 8.82692 54.3185 9.86539C54.9026 10.9038 55.1947 12.137 55.1947 13.5C55.1947 14.863 54.9026 16.0962 54.3185 17.1346C53.7668 18.1731 52.9879 19.0168 51.9819 19.5685Z" fill="#1454B2"/>
<path d="M74.017 0.519165H66.2285V26.4807H86.1215V20.185H74.017V0.519165Z" fill="#1454B2"/>
<path d="M91.8328 0.519165H83.4277L94.5263 26.4807H101.99L102.347 25.6694L91.8328 0.519165Z" fill="#1454B2"/>
<path d="M105.073 19.2439L113.121 0.519165H105.365L101.276 10.0925L105.073 19.2439Z" fill="#3B9BF2"/>
<path d="M127.465 0.519165H120.423L126.491 15.6418H120.877H113.316L108.545 26.4807H116.529L118.541 21.548H128.86L130.84 26.4807H138.985L127.465 0.519165Z" fill="#1454B2"/>
</svg>
