<svg width="21" height="20" viewBox="0 0 21 20" fill="none" xmlns="http://www.w3.org/2000/svg">
<path d="M10.5 12.5C11.8807 12.5 13 11.3807 13 10C13 8.61929 11.8807 7.5 10.5 7.5C9.11929 7.5 8 8.61929 8 10C8 11.3807 9.11929 12.5 10.5 12.5Z" stroke="#888888" stroke-width="1.5" stroke-miterlimit="10" stroke-linecap="round" stroke-linejoin="round"/>
<path d="M2.16669 10.7334V9.26669C2.16669 8.40003 2.87502 7.68336 3.75002 7.68336C5.25835 7.68336 5.87502 6.6167 5.11669 5.30836C4.68335 4.55836 4.94169 3.58336 5.70002 3.15003L7.14169 2.32503C7.80002 1.93336 8.65002 2.1667 9.04169 2.82503L9.13335 2.98336C9.88335 4.2917 11.1167 4.2917 11.875 2.98336L11.9667 2.82503C12.3584 2.1667 13.2084 1.93336 13.8667 2.32503L15.3084 3.15003C16.0667 3.58336 16.325 4.55836 15.8917 5.30836C15.1334 6.6167 15.75 7.68336 17.2584 7.68336C18.125 7.68336 18.8417 8.39169 18.8417 9.26669V10.7334C18.8417 11.6 18.1334 12.3167 17.2584 12.3167C15.75 12.3167 15.1334 13.3834 15.8917 14.6917C16.325 15.45 16.0667 16.4167 15.3084 16.85L13.8667 17.675C13.2084 18.0667 12.3584 17.8334 11.9667 17.175L11.875 17.0167C11.125 15.7084 9.89169 15.7084 9.13335 17.0167L9.04169 17.175C8.65002 17.8334 7.80002 18.0667 7.14169 17.675L5.70002 16.85C4.94169 16.4167 4.68335 15.4417 5.11669 14.6917C5.87502 13.3834 5.25835 12.3167 3.75002 12.3167C2.87502 12.3167 2.16669 11.6 2.16669 10.7334Z" stroke="#888888" stroke-width="1.5" stroke-miterlimit="10" stroke-linecap="round" stroke-linejoin="round"/>
</svg>
